<?xml version="1.0" standalone="no"?>
<!DOCTYPE svg PUBLIC "-//W3C//DTD SVG 20010904//EN"
 "http://www.w3.org/TR/2001/REC-SVG-20010904/DTD/svg10.dtd">
<svg version="1.0" xmlns="http://www.w3.org/2000/svg"
 width="127.000000pt" height="163.000000pt" viewBox="0 0 127.000000 163.000000"
 preserveAspectRatio="xMidYMid meet">
<metadata>
Created by potrace 1.16, written by Peter Selinger 2001-2019
</metadata>
<g transform="translate(0.000000,163.000000) scale(0.100000,-0.100000)"
fill="#000000" stroke="none">
<path d="M1040 1060 c0 -116 3 -210 8 -210 18 0 84 65 104 103 31 58 31 156 0
214 -20 38 -86 103 -104 103 -5 0 -8 -94 -8 -210z"/>
<path d="M970 678 c1 -251 2 -281 15 -264 24 31 54 121 66 196 11 66 8 111
-15 226 -5 25 -54 124 -61 124 -3 0 -5 -127 -5 -282z"/>
</g>
</svg>
